<svg width="227" height="60" viewBox="0 0 227 60" fill="none" xmlns="http://www.w3.org/2000/svg">
<g opacity="0.9">
<g clip-path="url(#clip0_19_119)">
<path d="M19 0L0 13.646V48.6501L10.5341 59.1841L10.3021 22.4196L19 15.3082L27.6979 22.4196L27.4659 59.1841L38 48.6501V13.646L19 0Z" fill="#252420"/>
<path d="M25.9939 29.5921L19 33.791L12.0062 29.5921V41.8506L19 46.055L25.9939 41.8506V29.5921Z" fill="#FF7401"/>
</g>
<path d="M60.0781 21.9046L55.1875 40.5921H50.3594L57.4688 17.8421H60.4844L60.0781 21.9046ZM63.9375 40.5921L59.0156 21.9046L58.5625 17.8421H61.625L68.7969 40.5921H63.9375ZM64.1094 32.1077V35.9046H53.8438V32.1077H64.1094ZM75.125 16.5764V40.5921H70.75V16.5764H75.125ZM84.0156 23.6858L78.0625 32.0921L74.4844 36.1077L72.9375 32.7796L75.6875 28.7639L78.7969 23.6858H84.0156ZM79.4531 40.5921L75.7656 32.8264L78.7812 30.0452L84.4688 40.5921H79.4531ZM93.5156 36.7014V28.8889C93.5156 28.3785 93.4531 27.9723 93.3281 27.6702C93.2135 27.3681 93.0365 27.1494 92.7969 27.0139C92.5677 26.8681 92.2865 26.7952 91.9531 26.7952C91.5781 26.7952 91.2656 26.8733 91.0156 27.0296C90.7656 27.1858 90.5781 27.4098 90.4531 27.7014C90.3385 27.9931 90.2812 28.3421 90.2812 28.7483H85.8906C85.8906 28.0192 86.0312 27.3317 86.3125 26.6858C86.5938 26.0296 87.0052 25.4567 87.5469 24.9671C88.099 24.4671 88.7552 24.0764 89.5156 23.7952C90.276 23.5139 91.1302 23.3733 92.0781 23.3733C93.2031 23.3733 94.2031 23.566 95.0781 23.9514C95.9531 24.3264 96.6458 24.9254 97.1562 25.7483C97.6667 26.5712 97.9219 27.6389 97.9219 28.9514V36.4827C97.9219 37.4306 97.9688 38.2014 98.0625 38.7952C98.1667 39.3889 98.3177 39.8994 98.5156 40.3264V40.5921H94.1094C93.9115 40.1233 93.7604 39.54 93.6562 38.8421C93.5625 38.1337 93.5156 37.4202 93.5156 36.7014ZM94.0469 30.2639L94.0625 32.8889H92.4531C92.0365 32.8889 91.6719 32.9567 91.3594 33.0921C91.0573 33.2275 90.8021 33.4202 90.5938 33.6702C90.3854 33.9098 90.2292 34.191 90.125 34.5139C90.0312 34.8369 89.9844 35.1806 89.9844 35.5452C89.9844 35.9514 90.0417 36.2952 90.1562 36.5764C90.2708 36.8577 90.4427 37.0712 90.6719 37.2171C90.901 37.3629 91.1719 37.4358 91.4844 37.4358C91.9635 37.4358 92.3802 37.3369 92.7344 37.1389C93.0885 36.941 93.349 36.7014 93.5156 36.4202C93.6927 36.1389 93.75 35.8785 93.6875 35.6389L94.6875 37.3421C94.5625 37.7275 94.3906 38.1285 94.1719 38.5452C93.9635 38.9619 93.6979 39.3473 93.375 39.7014C93.0521 40.0556 92.651 40.3473 92.1719 40.5764C91.7031 40.7952 91.1458 40.9046 90.5 40.9046C89.5938 40.9046 88.7656 40.6962 88.0156 40.2796C87.2656 39.8629 86.6719 39.2796 86.2344 38.5296C85.8073 37.7796 85.5938 36.8889 85.5938 35.8577C85.5938 35.0035 85.7292 34.2327 86 33.5452C86.2812 32.8473 86.6979 32.2587 87.25 31.7796C87.8021 31.29 88.5 30.915 89.3438 30.6546C90.1875 30.3942 91.1771 30.2639 92.3125 30.2639H94.0469ZM109.344 36.8577V16.5921H113.734V40.5921L109.766 40.6077L109.344 36.8577ZM100.578 32.7327V31.6077C100.578 30.2327 100.693 29.0296 100.922 27.9983C101.161 26.9671 101.516 26.1077 101.984 25.4202C102.453 24.7327 103.026 24.2223 103.703 23.8889C104.391 23.5452 105.177 23.3733 106.062 23.3733C106.865 23.3733 107.568 23.5764 108.172 23.9827C108.786 24.3785 109.307 24.9358 109.734 25.6546C110.161 26.3733 110.505 27.2223 110.766 28.2014C111.026 29.1806 111.208 30.2535 111.312 31.4202V33.0452C111.188 34.1494 110.995 35.1806 110.734 36.1389C110.484 37.0973 110.141 37.9306 109.703 38.6389C109.276 39.3473 108.76 39.9046 108.156 40.3108C107.552 40.7067 106.849 40.9046 106.047 40.9046C105.161 40.9046 104.375 40.7275 103.688 40.3733C103.01 40.0192 102.438 39.4983 101.969 38.8108C101.51 38.1129 101.161 37.2587 100.922 36.2483C100.693 35.2275 100.578 34.0556 100.578 32.7327ZM104.953 31.6077V32.7327C104.953 33.5244 104.99 34.2067 105.062 34.7796C105.146 35.3421 105.276 35.8056 105.453 36.1702C105.641 36.5244 105.885 36.79 106.188 36.9671C106.49 37.1337 106.865 37.2171 107.312 37.2171C107.896 37.2171 108.37 37.0712 108.734 36.7796C109.099 36.4775 109.37 36.066 109.547 35.5452C109.734 35.0139 109.839 34.4046 109.859 33.7171V30.7639C109.839 30.191 109.771 29.6754 109.656 29.2171C109.542 28.7587 109.38 28.3681 109.172 28.0452C108.964 27.7223 108.703 27.4723 108.391 27.2952C108.089 27.1181 107.734 27.0296 107.328 27.0296C106.891 27.0296 106.516 27.1181 106.203 27.2952C105.901 27.4723 105.661 27.7483 105.484 28.1233C105.307 28.4879 105.172 28.9619 105.078 29.5452C104.995 30.1181 104.953 30.8056 104.953 31.6077ZM123.844 40.9046C122.688 40.9046 121.661 40.7275 120.766 40.3733C119.88 40.0192 119.13 39.5087 118.516 38.8421C117.901 38.165 117.432 37.3473 117.109 36.3889C116.786 35.4306 116.625 34.3369 116.625 33.1077V31.7171C116.625 30.3421 116.781 29.1389 117.094 28.1077C117.406 27.066 117.849 26.191 118.422 25.4827C118.995 24.7744 119.698 24.2483 120.531 23.9046C121.375 23.5504 122.328 23.3733 123.391 23.3733C124.453 23.3733 125.385 23.5504 126.188 23.9046C127 24.2483 127.672 24.7692 128.203 25.4671C128.734 26.1546 129.135 27.0087 129.406 28.0296C129.677 29.0504 129.812 30.2379 129.812 31.5921V33.5921H118.484V30.5139H125.516V30.1233C125.516 29.4358 125.443 28.8629 125.297 28.4046C125.151 27.9358 124.922 27.5869 124.609 27.3577C124.297 27.1285 123.88 27.0139 123.359 27.0139C122.922 27.0139 122.552 27.1025 122.25 27.2796C121.948 27.4567 121.708 27.7327 121.531 28.1077C121.354 28.4827 121.224 28.9723 121.141 29.5764C121.057 30.1702 121.016 30.8837 121.016 31.7171V33.1077C121.016 33.8889 121.083 34.5452 121.219 35.0764C121.354 35.5973 121.552 36.0244 121.812 36.3577C122.083 36.6806 122.411 36.915 122.797 37.0608C123.182 37.1962 123.63 37.2639 124.141 37.2639C124.911 37.2639 125.604 37.1285 126.219 36.8577C126.844 36.5764 127.375 36.1962 127.812 35.7171L129.562 38.3733C129.26 38.7692 128.844 39.165 128.312 39.5608C127.781 39.9567 127.146 40.2796 126.406 40.5296C125.667 40.7796 124.812 40.9046 123.844 40.9046ZM136.75 27.1858V40.5921H132.359V23.6858H136.484L136.75 27.1858ZM136.125 31.5608L134.922 31.5921C134.901 30.4046 135.005 29.3108 135.234 28.3108C135.464 27.3108 135.807 26.441 136.266 25.7014C136.734 24.9619 137.323 24.3889 138.031 23.9827C138.74 23.5764 139.568 23.3733 140.516 23.3733C141.13 23.3733 141.698 23.4879 142.219 23.7171C142.74 23.9358 143.193 24.2848 143.578 24.7639C143.964 25.2327 144.26 25.8473 144.469 26.6077C144.677 27.3577 144.781 28.2587 144.781 29.3108V40.5921H140.406V29.8421C140.406 29.0921 140.333 28.5192 140.188 28.1233C140.042 27.7171 139.833 27.4358 139.562 27.2796C139.292 27.1129 138.958 27.0296 138.562 27.0296C138.146 27.0296 137.781 27.1442 137.469 27.3733C137.156 27.6025 136.901 27.9254 136.703 28.3421C136.516 28.7483 136.37 29.2275 136.266 29.7796C136.172 30.3317 136.125 30.9254 136.125 31.5608ZM144.359 31.1233L142.781 31.3264C142.76 30.2119 142.859 29.1754 143.078 28.2171C143.297 27.2483 143.635 26.4046 144.094 25.6858C144.552 24.9567 145.125 24.3889 145.812 23.9827C146.51 23.5764 147.318 23.3733 148.234 23.3733C148.922 23.3733 149.547 23.4879 150.109 23.7171C150.672 23.9462 151.151 24.316 151.547 24.8264C151.953 25.3264 152.26 25.9879 152.469 26.8108C152.688 27.6337 152.797 28.6337 152.797 29.8108V40.5921H148.406V29.8264C148.406 29.066 148.333 28.4827 148.188 28.0764C148.042 27.6702 147.833 27.3942 147.562 27.2483C147.292 27.1025 146.969 27.0296 146.594 27.0296C146.219 27.0296 145.891 27.1337 145.609 27.3421C145.339 27.5504 145.109 27.8421 144.922 28.2171C144.734 28.5817 144.594 29.0139 144.5 29.5139C144.406 30.0035 144.359 30.54 144.359 31.1233Z" fill="#252420"/>
<path d="M160.391 27.2952V40.5921H156V23.6858H160.109L160.391 27.2952ZM159.734 31.5608L158.562 31.5921C158.542 30.3212 158.661 29.1806 158.922 28.1702C159.193 27.1598 159.573 26.3004 160.062 25.5921C160.562 24.8733 161.156 24.3264 161.844 23.9514C162.542 23.566 163.318 23.3733 164.172 23.3733C164.828 23.3733 165.427 23.4879 165.969 23.7171C166.521 23.9462 166.995 24.3108 167.391 24.8108C167.786 25.3108 168.094 25.9775 168.312 26.8108C168.531 27.6337 168.641 28.6442 168.641 29.8421V40.5921H164.25V29.8108C164.25 29.0817 164.177 28.5192 164.031 28.1233C163.885 27.7171 163.667 27.4358 163.375 27.2796C163.083 27.1129 162.719 27.0296 162.281 27.0296C161.865 27.0296 161.495 27.1494 161.172 27.3889C160.849 27.6181 160.578 27.9358 160.359 28.3421C160.151 28.7483 159.99 29.2275 159.875 29.7796C159.771 30.3317 159.724 30.9254 159.734 31.5608ZM179.297 36.7014V28.8889C179.297 28.3785 179.234 27.9723 179.109 27.6702C178.995 27.3681 178.818 27.1494 178.578 27.0139C178.349 26.8681 178.068 26.7952 177.734 26.7952C177.359 26.7952 177.047 26.8733 176.797 27.0296C176.547 27.1858 176.359 27.4098 176.234 27.7014C176.12 27.9931 176.062 28.3421 176.062 28.7483H171.672C171.672 28.0192 171.812 27.3317 172.094 26.6858C172.375 26.0296 172.786 25.4567 173.328 24.9671C173.88 24.4671 174.536 24.0764 175.297 23.7952C176.057 23.5139 176.911 23.3733 177.859 23.3733C178.984 23.3733 179.984 23.566 180.859 23.9514C181.734 24.3264 182.427 24.9254 182.938 25.7483C183.448 26.5712 183.703 27.6389 183.703 28.9514V36.4827C183.703 37.4306 183.75 38.2014 183.844 38.7952C183.948 39.3889 184.099 39.8994 184.297 40.3264V40.5921H179.891C179.693 40.1233 179.542 39.54 179.438 38.8421C179.344 38.1337 179.297 37.4202 179.297 36.7014ZM179.828 30.2639L179.844 32.8889H178.234C177.818 32.8889 177.453 32.9567 177.141 33.0921C176.839 33.2275 176.583 33.4202 176.375 33.6702C176.167 33.9098 176.01 34.191 175.906 34.5139C175.812 34.8369 175.766 35.1806 175.766 35.5452C175.766 35.9514 175.823 36.2952 175.938 36.5764C176.052 36.8577 176.224 37.0712 176.453 37.2171C176.682 37.3629 176.953 37.4358 177.266 37.4358C177.745 37.4358 178.161 37.3369 178.516 37.1389C178.87 36.941 179.13 36.7014 179.297 36.4202C179.474 36.1389 179.531 35.8785 179.469 35.6389L180.469 37.3421C180.344 37.7275 180.172 38.1285 179.953 38.5452C179.745 38.9619 179.479 39.3473 179.156 39.7014C178.833 40.0556 178.432 40.3473 177.953 40.5764C177.484 40.7952 176.927 40.9046 176.281 40.9046C175.375 40.9046 174.547 40.6962 173.797 40.2796C173.047 39.8629 172.453 39.2796 172.016 38.5296C171.589 37.7796 171.375 36.8889 171.375 35.8577C171.375 35.0035 171.51 34.2327 171.781 33.5452C172.062 32.8473 172.479 32.2587 173.031 31.7796C173.583 31.29 174.281 30.915 175.125 30.6546C175.969 30.3942 176.958 30.2639 178.094 30.2639H179.828ZM194.438 36.0296C194.438 35.7379 194.339 35.4775 194.141 35.2483C193.943 35.0192 193.63 34.7848 193.203 34.5452C192.776 34.2952 192.208 34.0192 191.5 33.7171C190.729 33.4046 190.047 33.0817 189.453 32.7483C188.859 32.415 188.354 32.0452 187.938 31.6389C187.531 31.2327 187.224 30.7692 187.016 30.2483C186.807 29.7275 186.703 29.1337 186.703 28.4671C186.703 27.7483 186.833 27.0869 187.094 26.4827C187.365 25.8681 187.75 25.3317 188.25 24.8733C188.75 24.4046 189.359 24.04 190.078 23.7796C190.807 23.5087 191.625 23.3733 192.531 23.3733C193.802 23.3733 194.891 23.5973 195.797 24.0452C196.714 24.4827 197.417 25.0973 197.906 25.8889C198.396 26.6806 198.641 27.6025 198.641 28.6546H194.266C194.266 28.2796 194.208 27.9462 194.094 27.6546C193.979 27.3525 193.792 27.1181 193.531 26.9514C193.281 26.7848 192.943 26.7014 192.516 26.7014C192.203 26.7014 191.922 26.7692 191.672 26.9046C191.432 27.04 191.24 27.2223 191.094 27.4514C190.958 27.6702 190.891 27.9306 190.891 28.2327C190.891 28.4619 190.938 28.665 191.031 28.8421C191.135 29.0192 191.297 29.191 191.516 29.3577C191.734 29.5244 192.026 29.7014 192.391 29.8889C192.766 30.066 193.224 30.2639 193.766 30.4827C194.891 30.8994 195.812 31.3473 196.531 31.8264C197.26 32.3056 197.802 32.8681 198.156 33.5139C198.51 34.1494 198.688 34.9358 198.688 35.8733C198.688 36.6233 198.542 37.3056 198.25 37.9202C197.969 38.5348 197.557 39.066 197.016 39.5139C196.474 39.9619 195.823 40.3056 195.062 40.5452C194.312 40.7848 193.474 40.9046 192.547 40.9046C191.182 40.9046 190.031 40.6337 189.094 40.0921C188.156 39.5504 187.448 38.8577 186.969 38.0139C186.49 37.1598 186.25 36.2744 186.25 35.3577H190.406C190.427 35.9202 190.531 36.3629 190.719 36.6858C190.917 36.9983 191.182 37.2171 191.516 37.3421C191.849 37.4671 192.219 37.5296 192.625 37.5296C193.031 37.5296 193.365 37.4775 193.625 37.3733C193.896 37.2587 194.099 37.0869 194.234 36.8577C194.37 36.6181 194.438 36.3421 194.438 36.0296ZM205.734 16.5921V40.5921H201.359V16.5921H205.734ZM205.109 31.5608L203.922 31.5921C203.922 30.4046 204.042 29.3108 204.281 28.3108C204.531 27.3108 204.891 26.441 205.359 25.7014C205.828 24.9619 206.396 24.3889 207.062 23.9827C207.74 23.5764 208.484 23.3733 209.297 23.3733C209.995 23.3733 210.63 23.4931 211.203 23.7327C211.776 23.9723 212.271 24.3473 212.688 24.8577C213.115 25.3681 213.443 26.04 213.672 26.8733C213.901 27.7067 214.016 28.7223 214.016 29.9202V40.5921H209.625V29.8889C209.625 29.1598 209.552 28.5869 209.406 28.1702C209.26 27.7535 209.042 27.4619 208.75 27.2952C208.458 27.1181 208.094 27.0296 207.656 27.0296C207.188 27.0296 206.786 27.1494 206.453 27.3889C206.13 27.6181 205.87 27.9358 205.672 28.3421C205.474 28.7483 205.328 29.2275 205.234 29.7796C205.151 30.3317 205.109 30.9254 205.109 31.5608ZM221.594 27.4514V40.5921H217.219V23.6858H221.344L221.594 27.4514ZM225.578 23.5608L225.516 27.9202C225.318 27.8785 225.078 27.8473 224.797 27.8264C224.526 27.8056 224.286 27.7952 224.078 27.7952C223.589 27.7952 223.172 27.8733 222.828 28.0296C222.484 28.1754 222.198 28.3994 221.969 28.7014C221.75 28.9931 221.583 29.3577 221.469 29.7952C221.354 30.2327 221.286 30.7275 221.266 31.2796L220.438 30.9671C220.438 29.8629 220.521 28.8525 220.688 27.9358C220.865 27.0087 221.125 26.2067 221.469 25.5296C221.812 24.8421 222.224 24.3108 222.703 23.9358C223.193 23.5608 223.745 23.3733 224.359 23.3733C224.568 23.3733 224.786 23.3942 225.016 23.4358C225.255 23.4671 225.443 23.5087 225.578 23.5608Z" fill="#FF7500"/>
</g>
<defs>
<clipPath id="clip0_19_119">
<rect width="38" height="59.1841" fill="white"/>
</clipPath>
</defs>
</svg>
